HIERARCHY
ROOT pelvis
{
  OFFSET 0 100 0
  CHANNELS 6 Xposition Yposition Zposition Zrotation Xrotation Yrotation
  JOINT pelvis_right_femur
  {
    OFFSET -10.78128 -3.44521 -0.5502486
    CHANNELS 3 Zrotation Xrotation Yrotation
    JOINT right_femur_tibia
    {
      OFFSET -0.8047443 -44.0398 -0.1307829
      CHANNELS 3 Zrotation Xrotation Yrotation
      JOINT right_tibia_foot
      {
        OFFSET 3.006224 -47.83518 -5
        CHANNELS 3 Zrotation Xrotation Yrotation
        End Site
        {
          OFFSET 0 -5 15
        }
      }
    }
  }
  JOINT pelvis_left_femur
  {
    OFFSET 10.78128 -3.44521 -0.5502486
    CHANNELS 3 Zrotation Xrotation Yrotation
    JOINT left_femur_tibia
    {
      OFFSET 0.8047443 -44.0398 -0.1307829
      CHANNELS 3 Zrotation Xrotation Yrotation
      JOINT left_tibia_foot
      {
        OFFSET -4.370144 -48.10324 -4.275266
        CHANNELS 3 Zrotation Xrotation Yrotation
        End Site
        {
          OFFSET 0 -5 15
        }
      }
    }
  }
  JOINT pelvis_spine1
  {
    OFFSET 0 6.468898 -3.129235
    CHANNELS 3 Zrotation Xrotation Yrotation
    JOINT spine1
    {
      OFFSET 0 23.15396 4.99043
      CHANNELS 3 Zrotation Xrotation Yrotation
      JOINT spine2
      {
        OFFSET 0 20.79997 -5.064912
        CHANNELS 3 Zrotation Xrotation Yrotation
        JOINT neck
        {
          OFFSET 0 14.38658 9.616178
          CHANNELS 3 Zrotation Xrotation Yrotation
          End Site
          {
            OFFSET 0 20 0
          }
        }
      }
      JOINT right_manubrium
      {
        OFFSET -5.722621 16.35077 3.967754
        CHANNELS 3 Zrotation Xrotation Yrotation
        JOINT right_clavicle
        {
          OFFSET -13.16364 1.694482 -4.693211
          CHANNELS 3 Zrotation Xrotation Yrotation
          JOINT right_humerus
          {
            OFFSET -28.5034 -0.3100689 -2.792744
            CHANNELS 3 Zrotation Xrotation Yrotation
            JOINT right_radius
            {
              OFFSET -25.15693 0.02248979 -1.271978
              CHANNELS 3 Zrotation Xrotation Yrotation
              End Site
              {
                OFFSET -15 0 0
              }
            }
          }
        }
      }
      JOINT left_manubrium
      {
        OFFSET 5.722621 16.35077 3.967754
        CHANNELS 3 Zrotation Xrotation Yrotation
        JOINT left_clavicle
        {
          OFFSET 13.16364 1.694482 -4.693211
          CHANNELS 3 Zrotation Xrotation Yrotation
          JOINT left_humerus
          {
            OFFSET 29.39168 -1.063119 -2.237045
            CHANNELS 3 Zrotation Xrotation Yrotation
            JOINT left_radius
            {
              OFFSET 24.59957 -0.9528479 0.9047498
              CHANNELS 3 Zrotation Xrotation Yrotation
              End Site
              {
                OFFSET 15 -0 -0
              }
            }
          }
        }
      }
    }
  }
}
MOTION
Frames: 19
Frame Time: 0.0416666666667
-1451.91 106.3978 2060.145 -6.917801 -0.6442312 -84.8648 6.746258 7.625624 -1.1264 -0 6.436328 -0 -13.33376 -8.672959 -1.531322 1.92319 -19.23042 -2.750311 -0 39.43228 -0 3.110182 -3.038174 15.34225 -1.893057 -0.4298234 8.458895 -2.233006 11.50651 -3.164322 -0.8456609 21.54124 7.951154 7.854975 -15.15047 3.037204 1.547105 -25.62166 10.96386 84.23449 37.30207 -5.297505 -0 0 24.75854 -21.52362 4.825455 8.472179 4.854326 -22.70608 -7.110423 -92.99696 5.664241 30.1988 0 0 -2.792997 11.23788 8.75929 -2.714705
-1456.744 105.7749 2060.916 -6.700101 -0.04255946 -85.53207 6.693433 10.76124 -0.6767378 -0 6.361987 -0 -13.21165 -11.96075 -1.598326 3.431787 -21.76957 -2.294784 -0 28.41776 -0 3.159708 -2.549129 16.53585 -1.84984 -0.6395855 8.709409 -2.123673 11.60512 -3.023385 -0.807776 21.54072 7.645281 7.587236 -14.83992 2.912885 1.635043 -26.21427 11.10425 83.43955 36.44443 -4.120859 -0 0 26.04199 -21.50285 5.250815 8.889493 4.409007 -22.31625 -6.994808 -94.14302 5.626917 32.0414 0 0 -0.276742 10.45103 9.301846 -1.743089
-1461.769 104.7194 2061.826 -6.453607 0.5145752 -86.27899 6.322526 13.78369 -0.386852 -0 6.938595 -0 -13.12181 -14.74813 -1.451025 4.229674 -23.16197 -2.620359 -0 18.62512 -0 2.821526 -2.083891 17.44389 -1.801467 -0.8130785 8.875832 -2.05054 11.69934 -2.888419 -0.7450745 21.55748 7.378425 7.347803 -14.58718 2.844265 1.730351 -26.65624 11.22924 82.77948 35.66394 -3.144299 -0 0 27.04715 -21.5705 5.708794 9.321125 4.081861 -21.95101 -6.877139 -95.09515 5.638506 33.46827 -0 0 1.782193 9.827626 9.840121 -0.9697725
-1467.103 103.4808 2062.902 -6.271126 0.7422734 -87.07132 5.420781 16.71706 -0.2924937 -0 8.588793 -0 -13.01698 -16.07176 -1.026014 3.973317 -23.43029 -3.851526 -0 11.52776 -0 2.094108 -1.945539 18.04996 -1.755245 -0.942134 8.945805 -2.021014 11.77738 -2.757676 -0.6603626 21.60147 7.169076 7.15299 -14.40515 2.835985 1.830214 -26.91738 11.33155 82.26223 35.00091 -2.39057 -0 0 27.7109 -21.7358 6.152573 9.755893 3.894463 -21.61916 -6.759679 -95.81129 5.723626 34.40293 -0 0 3.311405 9.407071 10.36945 -0.4484037
-1472.822 102.354 2064.135 -6.278977 0.5347495 -87.81524 4.031511 19.22175 -0.3291591 -0 11.90574 -0 -12.96684 -15.10012 -0.3457716 2.70511 -22.5394 -5.76333 -0 7.791367 -0 1.228658 -2.261552 18.49464 -1.715345 -1.02471 8.916071 -2.028685 11.83534 -2.641711 -0.5608359 21.67428 7.02459 7.011154 -14.30133 2.881209 1.92854 -26.98366 11.40777 81.90276 34.46274 -1.90043 -0 0 27.9969 -21.98222 6.546121 10.16489 3.850618 -21.34371 -6.655193 -96.26381 5.894221 34.81156 -0 0 4.25981 9.210142 10.87573 -0.2065413
-1478.923 101.611 2065.476 -6.585935 -0.01329851 -88.3985 2.419859 20.74787 -0.4042411 -0 17.26472 -0 -13.1293 -11.60068 0.4787278 0.8073591 -20.48537 -7.908476 -0 7.178982 -0 0.5576408 -2.979025 18.97007 -1.682295 -1.063685 8.791144 -2.056909 11.87683 -2.560828 -0.4562407 21.76921 6.942713 6.923174 -14.27734 2.965524 2.017479 -26.85579 11.45791 81.72277 34.03467 -1.727333 -0 0 27.89456 -22.27315 6.871626 10.50635 3.939632 -21.15824 -6.583368 -96.4366 6.147135 34.69583 -0 0 4.592012 9.241497 11.33632 -0.2479436
-1485.306 101.4309 2066.847 -7.215071 -0.6826767 -88.73423 0.9454781 20.79024 -0.4757298 -0 24.44815 -0 -13.6286 -6.14839 1.318971 -1.204748 -17.40403 -9.846818 -0 8.72067 -0 0.2984049 -3.953063 19.59136 -1.653546 -1.065544 8.581729 -2.08538 11.9112 -2.538745 -0.3571314 21.87345 6.915316 6.885265 -14.33052 3.071004 2.089253 -26.54792 11.48456 81.7447 33.69112 -1.922698 -0 0 27.41765 -22.56471 7.127927 10.73658 4.142318 -21.09927 -6.565126 -96.32529 6.463723 34.08581 -0 0 4.291287 9.493474 11.724 -0.558477
-1491.779 101.8511 2068.169 -8.077165 -1.251896 -88.78863 -0.09764801 19.11546 -0.56695 -0 32.53082 -0 -14.44373 0.06713133 2.081849 -2.913853 -13.58961 -11.33081 -0 11.12578 -0 0.4442387 -5.056603 20.31704 -1.624798 -1.038963 8.30349 -2.096564 11.95073 -2.595546 -0.2735912 21.97125 6.932363 6.892285 -14.45613 3.179394 2.137475 -26.08649 11.49187 81.9839 33.40421 -2.519179 -0 0 26.60278 -22.81848 7.322394 10.82109 4.436517 -21.19764 -6.617226 -95.9394 6.811739 33.0348 -0 0 3.366456 9.948767 12.01091 -1.111701
-1498.12 102.7621 2069.395 -9.000709 -1.592204 -88.58513 -0.5959356 15.84525 -0.7258884 -0 40.11613 -0 -15.39281 5.719178 2.690581 -4.117453 -9.41943 -12.33583 -0 13.25527 -0 0.7997417 -6.250164 20.96712 -1.591641 -0.9932419 7.976033 -2.07986 12.00736 -2.742232 -0.2142683 22.04714 6.984728 6.939925 -14.64889 3.274381 2.157812 -25.5081 11.48467 82.44178 33.14908 -3.517584 -0 0 25.50697 -23.00916 7.461433 10.74198 4.800383 -21.47091 -6.748456 -95.30434 7.150154 31.61565 -0 0 1.85784 10.58105 12.17169 -1.871944
-1504.142 103.9471 2070.51 -9.790361 -1.692182 -88.1893 -0.6242067 11.3757 -0.9907535 -0 45.79113 -0 -16.203 9.814606 3.059412 -4.813271 -5.256859 -12.96442 -0 14.43268 -0 1.119989 -7.576472 21.32244 -1.551084 -0.9366553 7.621628 -2.032973 12.08939 -2.977891 -0.1854759 22.08878 7.065384 7.025189 -14.90304 3.343339 2.148205 -24.85599 11.46752 83.10149 32.9075 -4.880223 -0 0 24.20343 -23.12643 7.544328 10.50049 5.213361 -21.91815 -6.95774 -94.4615 7.436643 29.9171 0 0 -0.1603548 11.35437 12.18605 -2.794986
-1509.743 105.1488 2071.527 -10.27978 -1.622516 -87.68501 -0.366167 6.21071 -1.384494 -0 48.55498 -0 -16.62333 11.92595 3.124218 -5.122028 -1.386451 -13.33249 -0 14.49725 -0 1.251021 -9.095218 21.23407 -1.502602 -0.8749294 7.263351 -1.96107 12.19895 -3.289505 -0.1903158 22.08901 7.169353 7.145534 -15.21113 3.378806 2.108871 -24.17525 11.44388 83.92729 32.67168 -6.531452 -0 0 22.77547 -23.1726 7.562613 10.11554 5.655865 -22.51781 -7.233936 -93.46555 7.636073 28.03876 0 0 -2.58204 12.22305 12.04169 -3.828171
-1514.92 106.1329 2072.464 -10.3632 -1.480837 -87.15277 -0.01902563 0.808869 -1.916341 -0 48.03789 -0 -16.5237 12.15797 2.897399 -5.208877 2.011948 -13.50778 -0 13.66421 -0 1.195184 -10.81499 20.68252 -1.448512 -0.8101946 6.922701 -1.874743 12.33061 -3.653896 -0.2280328 22.04695 7.293139 7.297574 -15.56238 3.379591 2.042228 -23.50767 11.4153 84.86793 32.44859 -8.365069 -0 0 21.30867 -23.15842 7.504352 9.619802 6.108843 -23.22926 -7.557051 -92.37877 7.727517 26.08408 0 0 -5.27568 13.13405 11.73743 -4.912162
-1519.743 106.7306 2073.337 -10.00603 -1.349625 -86.65615 0.2696764 -4.499338 -2.577454 -0 44.47892 -0 -15.92191 10.96959 2.47747 -5.227369 4.862303 -13.50471 -0 12.32739 -0 1.092805 -12.66918 19.77548 -1.393617 -0.740759 6.617225 -1.78763 12.47177 -4.041153 -0.2939154 21.96797 7.434209 7.476204 -15.94167 3.351126 1.952719 -22.88736 11.3811 85.86369 32.2631 -10.25725 -0 0 19.8827 -23.09906 7.360705 9.054494 6.553981 -23.99774 -7.900679 -91.26366 7.707505 24.1518 0 0 -8.094718 14.03224 11.28547 -5.985451
-1524.335 106.8526 2074.158 -9.24042 -1.278042 -86.23629 0.4263596 -9.518924 -3.336559 -0 38.54983 -0 -14.94075 8.979618 2.0021 -5.288437 7.175292 -13.30902 -0 10.90697 -0 1.153108 -14.53639 18.70461 -1.344236 -0.6619234 6.358917 -1.714161 12.6047 -4.41887 -0.3799524 21.86244 7.590681 7.674544 -16.32982 3.304612 1.846421 -22.33829 11.33852 86.85524 32.15706 -12.08249 -0 0 18.56441 -23.01078 7.131618 8.463717 6.974526 -24.76195 -8.235413 -90.17572 7.588612 22.32784 0 0 -10.8908 14.86719 10.71138 -6.990788
-1528.834 106.4854 2074.934 -8.15275 -1.281853 -85.91125 0.4494799 -14.147 -4.140729 -0 31.14571 -0 -13.74893 6.817897 1.590027 -5.449577 9.022422 -12.9067 -0 9.775065 -0 1.569889 -16.27461 17.68483 -1.306898 -0.56774 6.153966 -1.667514 12.71008 -4.756516 -0.4762018 21.74349 7.761043 7.884524 -16.70516 3.254842 1.730415 -21.87425 11.28369 87.79155 32.18256 -13.72897 -0 0 17.40415 -22.90847 6.82823 7.88912 7.356197 -25.46267 -8.532805 -89.15875 7.394289 20.6801 0 0 -13.52741 15.59922 10.05119 -7.881189
-1533.387 105.6786 2075.672 -6.868766 -1.350391 -85.67756 0.3965863 -18.30983 -4.919015 -0 23.22501 -0 -12.52446 5.026407 1.307686 -5.716786 10.5073 -12.30474 -0 9.241854 -0 2.444044 -17.74247 16.89134 -1.287057 -0.4532609 6.003903 -1.657782 12.77087 -5.029209 -0.5725413 21.62434 7.943661 8.097667 -17.04604 3.217088 1.611977 -21.50097 11.21307 88.63422 32.39039 -15.10958 -0 0 16.43569 -22.80376 6.471271 7.365538 7.687525 -26.05047 -8.769154 -88.24354 7.152225 19.25766 0 0 -15.8907 16.20215 9.346232 -8.623302
-1538.13 104.5326 2076.373 -5.539342 -1.452411 -85.51332 0.3706332 -21.90535 -5.585569 -0 15.71755 -0 -11.43995 3.991389 1.164091 -6.051507 11.73676 -11.54086 -0 9.5692 -0 3.724323 -18.80353 16.403 -1.288186 -0.3166286 5.90755 -1.690515 12.77555 -5.220217 -0.6603192 21.51598 8.13606 8.305643 -17.33327 3.203902 1.497799 -21.21954 11.12492 89.35736 32.81689 -16.16673 -0 0 15.6794 -22.7037 6.086565 6.918313 7.959453 -26.49075 -8.928338 -87.4501 6.888693 18.09387 0 0 -17.89476 16.66255 8.637699 -9.197346
-1543.18 103.1909 2077.033 -4.325143 -1.538389 -85.38399 0.5066077 -24.76946 -6.044486 -0 9.468172 -0 -10.6519 3.887518 1.124233 -6.37772 12.7898 -10.6822 -0 10.98461 -0 5.179203 -19.325 16.16149 -1.311408 -0.1604638 5.862929 -1.765858 12.71985 -5.321804 -0.7334738 21.42592 8.334132 8.500448 -17.55192 3.222667 1.393488 -21.02953 11.02036 89.9439 33.47328 -16.87075 -0 0 15.14658 -22.61052 5.699729 6.56273 8.164503 -26.76544 -9.003059 -86.79191 6.625418 17.21178 0 0 -19.4802 16.97643 7.962891 -9.594478
-1548.62 101.8332 2077.644 -3.375463 -1.542139 -85.25381 0.9496533 -26.68239 -6.205037 -0 5.162688 -0 -10.28098 4.631898 1.131205 -6.589843 13.67981 -9.810745 -0 13.68107 -0 6.427885 -19.18095 15.96816 -1.355633 0.007691701 5.868442 -1.878473 12.60692 -5.334479 -0.7889269 21.35816 8.531527 8.674323 -17.69211 3.274402 1.30348 -20.93123 10.90377 90.38021 34.33976 -17.21375 -0 0 14.84354 -22.52261 5.332115 6.305477 8.296066 -26.87162 -8.994425 -86.28075 6.379089 16.62948 0 0 -20.60712 17.14527 7.354158 -9.813247
